<?xml version="1.0" encoding="utf-8"?>
<!-- Generator: Adobe Illustrator 16.0.0, SVG Export Plug-In . SVG Version: 6.00 Build 0)  -->
<!DOCTYPE svg PUBLIC "-//W3C//DTD SVG 1.1//EN" "http://www.w3.org/Graphics/SVG/1.1/DTD/svg11.dtd">
<svg version="1.1" id="Layer_1" xmlns="http://www.w3.org/2000/svg" xmlns:xlink="http://www.w3.org/1999/xlink" x="0px" y="0px"
	 width="235px" height="50px" viewBox="0 0 235 50" enable-background="new 0 0 235 50" xml:space="preserve">
<g>
	<path fill="#2E2E2E" stroke="#FFFFFF" stroke-width="0.5" stroke-miterlimit="10" d="M37.068,26.589
		c0,7.063-5.724,12.79-12.79,12.79c-7.065,0-12.792-5.728-12.792-12.79c0-7.066,5.727-12.793,12.792-12.793
		C31.344,13.795,37.068,19.523,37.068,26.589"/>
	<polygon fill="#FFFFFF" points="4.03,22.334 10.564,22.334 10.564,25.345 7.946,25.345 7.946,28.203 10.394,28.203 10.394,31.069 
		7.946,31.069 7.946,34.385 10.824,34.385 10.824,37.398 4.03,37.398 	"/>
	<polygon fill="none" stroke="#FFFFFF" stroke-width="0.25" points="4.03,22.334 10.564,22.334 10.564,25.345 7.946,25.345 
		7.946,28.203 10.394,28.203 10.394,31.069 7.946,31.069 7.946,34.385 10.824,34.385 10.824,37.398 4.03,37.398 	"/>
	<path d="M19.516,28.994h-3.331v-0.668c0-0.572-0.033-0.932-0.099-1.088c-0.066-0.149-0.227-0.225-0.488-0.225
		c-0.211,0-0.369,0.069-0.476,0.207c-0.105,0.143-0.158,0.351-0.158,0.631c0,0.377,0.028,0.656,0.08,0.832
		c0.053,0.176,0.211,0.372,0.475,0.583c0.264,0.21,0.805,0.518,1.623,0.921c1.092,0.533,1.81,1.036,2.153,1.508
		c0.34,0.472,0.508,1.154,0.508,2.055c0,1.006-0.129,1.764-0.392,2.277c-0.259,0.511-0.695,0.905-1.306,1.182
		c-0.611,0.275-1.347,0.412-2.208,0.412c-0.956,0-1.777-0.149-2.455-0.444c-0.679-0.297-1.147-0.703-1.397-1.212
		c-0.256-0.507-0.385-1.276-0.385-2.308v-0.595h3.333v0.782c0,0.663,0.04,1.096,0.124,1.292c0.084,0.199,0.25,0.3,0.497,0.3
		c0.269,0,0.455-0.067,0.562-0.201c0.104-0.136,0.156-0.414,0.156-0.842c0-0.59-0.068-0.958-0.203-1.107
		c-0.145-0.15-0.873-0.59-2.19-1.323c-1.104-0.618-1.772-1.182-2.019-1.688c-0.241-0.507-0.361-1.106-0.361-1.801
		c0-0.987,0.13-1.714,0.389-2.183c0.262-0.469,0.703-0.83,1.326-1.086c0.625-0.252,1.351-0.38,2.176-0.38
		c0.816,0,1.514,0.104,2.088,0.312c0.573,0.208,1.014,0.483,1.321,0.824c0.308,0.343,0.493,0.657,0.557,0.95
		c0.066,0.291,0.099,0.749,0.099,1.368V28.994z"/>
	<path fill="#FFFFFF" stroke="#FFFFFF" stroke-width="0.25" d="M19.516,28.994h-3.331v-0.668c0-0.572-0.033-0.932-0.099-1.088
		c-0.066-0.149-0.227-0.225-0.488-0.225c-0.211,0-0.369,0.069-0.476,0.207c-0.105,0.143-0.158,0.351-0.158,0.631
		c0,0.377,0.028,0.656,0.08,0.832c0.053,0.176,0.211,0.372,0.475,0.583c0.264,0.21,0.805,0.518,1.623,0.921
		c1.092,0.533,1.81,1.036,2.153,1.508c0.34,0.472,0.508,1.154,0.508,2.055c0,1.006-0.129,1.764-0.392,2.277
		c-0.259,0.511-0.695,0.905-1.306,1.182c-0.611,0.275-1.347,0.412-2.208,0.412c-0.956,0-1.777-0.149-2.455-0.444
		c-0.679-0.297-1.147-0.703-1.397-1.212c-0.256-0.507-0.385-1.276-0.385-2.308v-0.595h3.333v0.782c0,0.663,0.04,1.096,0.124,1.292
		c0.084,0.199,0.25,0.3,0.497,0.3c0.269,0,0.455-0.067,0.562-0.201c0.104-0.136,0.156-0.414,0.156-0.842
		c0-0.59-0.068-0.958-0.203-1.107c-0.145-0.15-0.873-0.59-2.19-1.323c-1.104-0.618-1.772-1.182-2.019-1.688
		c-0.241-0.507-0.361-1.106-0.361-1.801c0-0.987,0.13-1.714,0.389-2.183c0.262-0.469,0.703-0.83,1.326-1.086
		c0.625-0.252,1.351-0.38,2.176-0.38c0.816,0,1.514,0.104,2.088,0.312c0.573,0.208,1.014,0.483,1.321,0.824
		c0.308,0.343,0.493,0.657,0.557,0.95c0.066,0.291,0.099,0.749,0.099,1.368V28.994z"/>
	<path fill="#FFFFFF" d="M28.489,28.994h-3.333v-0.668c0-0.572-0.032-0.932-0.097-1.088c-0.068-0.149-0.229-0.225-0.49-0.225
		c-0.211,0-0.368,0.069-0.473,0.207c-0.104,0.143-0.16,0.351-0.16,0.631c0,0.377,0.025,0.656,0.079,0.832
		c0.053,0.176,0.213,0.372,0.476,0.583c0.264,0.21,0.803,0.518,1.623,0.921c1.094,0.533,1.81,1.036,2.15,1.508
		c0.342,0.472,0.512,1.154,0.512,2.055c0,1.006-0.129,1.764-0.39,2.277c-0.261,0.511-0.697,0.905-1.309,1.182
		c-0.61,0.275-1.346,0.412-2.211,0.412c-0.956,0-1.773-0.149-2.452-0.444c-0.679-0.297-1.146-0.703-1.4-1.212
		c-0.254-0.507-0.38-1.276-0.38-2.308v-0.595h3.331v0.782c0,0.663,0.041,1.096,0.125,1.292c0.085,0.199,0.25,0.3,0.498,0.3
		c0.267,0,0.451-0.067,0.56-0.201c0.104-0.136,0.157-0.414,0.157-0.842c0-0.59-0.069-0.958-0.205-1.107
		c-0.144-0.15-0.871-0.59-2.188-1.323c-1.104-0.618-1.778-1.182-2.021-1.688c-0.24-0.507-0.364-1.106-0.364-1.801
		c0-0.987,0.134-1.714,0.395-2.183c0.262-0.469,0.703-0.83,1.327-1.086c0.625-0.252,1.349-0.38,2.172-0.38
		c0.82,0,1.516,0.104,2.091,0.312c0.572,0.208,1.013,0.483,1.32,0.824c0.308,0.343,0.493,0.657,0.558,0.95
		c0.066,0.291,0.1,0.749,0.1,1.368V28.994z"/>
	<path fill="none" stroke="#FFFFFF" stroke-width="0.25" d="M28.489,28.994h-3.333v-0.668c0-0.572-0.032-0.932-0.097-1.088
		c-0.068-0.149-0.229-0.225-0.49-0.225c-0.211,0-0.368,0.069-0.473,0.207c-0.104,0.143-0.16,0.351-0.16,0.631
		c0,0.377,0.025,0.656,0.079,0.832c0.053,0.176,0.213,0.372,0.476,0.583c0.264,0.21,0.803,0.518,1.623,0.921
		c1.094,0.533,1.81,1.036,2.15,1.508c0.342,0.472,0.512,1.154,0.512,2.055c0,1.006-0.129,1.764-0.39,2.277
		c-0.261,0.511-0.697,0.905-1.309,1.182c-0.61,0.275-1.346,0.412-2.211,0.412c-0.956,0-1.773-0.149-2.452-0.444
		c-0.679-0.297-1.146-0.703-1.4-1.212c-0.254-0.507-0.38-1.276-0.38-2.308v-0.595h3.331v0.782c0,0.663,0.041,1.096,0.125,1.292
		c0.085,0.199,0.25,0.3,0.498,0.3c0.267,0,0.451-0.067,0.56-0.201c0.104-0.136,0.157-0.414,0.157-0.842
		c0-0.59-0.069-0.958-0.205-1.107c-0.144-0.15-0.871-0.59-2.188-1.323c-1.104-0.618-1.778-1.182-2.021-1.688
		c-0.24-0.507-0.364-1.106-0.364-1.801c0-0.987,0.134-1.714,0.395-2.183c0.262-0.469,0.703-0.83,1.327-1.086
		c0.625-0.252,1.349-0.38,2.172-0.38c0.82,0,1.516,0.104,2.091,0.312c0.572,0.208,1.013,0.483,1.32,0.824
		c0.308,0.343,0.493,0.657,0.558,0.95c0.066,0.291,0.1,0.749,0.1,1.368V28.994z"/>
	<path fill="#FFFFFF" d="M38.296,31.443h-4.867v2.67c0,0.56,0.042,0.922,0.12,1.079c0.081,0.163,0.236,0.244,0.467,0.244
		c0.285,0,0.476-0.107,0.572-0.321c0.096-0.215,0.144-0.629,0.144-1.242v-1.628h3.564v0.911c0,0.763-0.046,1.349-0.144,1.759
		c-0.097,0.409-0.322,0.846-0.675,1.313c-0.354,0.466-0.803,0.812-1.344,1.047c-0.544,0.233-1.225,0.347-2.042,0.347
		c-0.796,0-1.496-0.113-2.105-0.342c-0.608-0.229-1.081-0.545-1.417-0.945c-0.341-0.398-0.575-0.841-0.704-1.321
		c-0.13-0.481-0.195-1.181-0.195-2.099v-3.603c0-1.079,0.144-1.933,0.435-2.555c0.293-0.62,0.768-1.1,1.433-1.432
		c0.663-0.333,1.428-0.499,2.291-0.499c1.053,0,1.922,0.201,2.608,0.601c0.686,0.4,1.169,0.929,1.444,1.59
		c0.276,0.661,0.414,1.591,0.414,2.789V31.443z M34.528,29.433v-0.901c0-0.64-0.037-1.052-0.103-1.24
		c-0.068-0.187-0.209-0.277-0.419-0.277c-0.26,0-0.423,0.078-0.485,0.237c-0.063,0.159-0.092,0.582-0.092,1.28v0.901H34.528z"/>
	<path fill="none" stroke="#FFFFFF" stroke-width="0.25" d="M38.296,31.443h-4.867v2.67c0,0.56,0.042,0.922,0.12,1.079
		c0.081,0.163,0.236,0.244,0.467,0.244c0.285,0,0.476-0.107,0.572-0.321c0.096-0.215,0.144-0.629,0.144-1.242v-1.628h3.564v0.911
		c0,0.763-0.046,1.349-0.144,1.759c-0.097,0.409-0.322,0.846-0.675,1.313c-0.354,0.466-0.803,0.812-1.344,1.047
		c-0.544,0.233-1.225,0.347-2.042,0.347c-0.796,0-1.496-0.113-2.105-0.342c-0.608-0.229-1.081-0.545-1.417-0.945
		c-0.341-0.398-0.575-0.841-0.704-1.321c-0.13-0.481-0.195-1.181-0.195-2.099v-3.603c0-1.079,0.144-1.933,0.435-2.555
		c0.293-0.62,0.768-1.1,1.433-1.432c0.663-0.333,1.428-0.499,2.291-0.499c1.053,0,1.922,0.201,2.608,0.601
		c0.686,0.4,1.169,0.929,1.444,1.59c0.276,0.661,0.414,1.591,0.414,2.789V31.443z M34.528,29.433v-0.901
		c0-0.64-0.037-1.052-0.103-1.24c-0.068-0.187-0.209-0.277-0.419-0.277c-0.26,0-0.423,0.078-0.485,0.237
		c-0.063,0.159-0.092,0.582-0.092,1.28v0.901H34.528z"/>
	<path fill="#FFFFFF" d="M43.351,25.049l-0.063,1.138c0.27-0.453,0.604-0.794,0.994-1.022c0.4-0.226,0.853-0.34,1.368-0.34
		c0.646,0,1.174,0.153,1.583,0.458s0.672,0.686,0.79,1.148c0.119,0.462,0.177,1.232,0.177,2.313v8.658h-3.758v-8.555
		c0-0.851-0.029-1.368-0.086-1.557c-0.054-0.187-0.208-0.277-0.463-0.277c-0.267,0-0.434,0.105-0.504,0.319
		c-0.068,0.217-0.099,0.788-0.099,1.719v8.351h-3.762V25.049H43.351z"/>
	<path fill="none" stroke="#FFFFFF" stroke-width="0.25" d="M43.351,25.049l-0.063,1.138c0.27-0.453,0.604-0.794,0.994-1.022
		c0.4-0.226,0.853-0.34,1.368-0.34c0.646,0,1.174,0.153,1.583,0.458s0.672,0.686,0.79,1.148c0.119,0.462,0.177,1.232,0.177,2.313
		v8.658h-3.758v-8.555c0-0.851-0.029-1.368-0.086-1.557c-0.054-0.187-0.208-0.277-0.463-0.277c-0.267,0-0.434,0.105-0.504,0.319
		c-0.068,0.217-0.099,0.788-0.099,1.719v8.351h-3.762V25.049H43.351z"/>
	<path fill="#FFFFFF" d="M57.168,28.994h-3.331v-0.668c0-0.572-0.031-0.932-0.097-1.088c-0.066-0.149-0.228-0.225-0.488-0.225
		c-0.212,0-0.37,0.069-0.475,0.207c-0.104,0.143-0.158,0.351-0.158,0.631c0,0.377,0.025,0.656,0.079,0.832
		c0.052,0.176,0.212,0.372,0.473,0.583c0.266,0.21,0.807,0.518,1.626,0.921c1.092,0.533,1.807,1.036,2.15,1.508
		c0.34,0.472,0.511,1.154,0.511,2.055c0,1.006-0.129,1.764-0.39,2.277c-0.259,0.511-0.698,0.905-1.309,1.182
		c-0.611,0.275-1.347,0.412-2.212,0.412c-0.954,0-1.77-0.149-2.45-0.444c-0.679-0.297-1.146-0.703-1.4-1.212
		c-0.256-0.507-0.383-1.276-0.383-2.308v-0.595h3.332v0.782c0,0.663,0.041,1.096,0.128,1.292c0.082,0.199,0.249,0.3,0.497,0.3
		c0.264,0,0.452-0.067,0.558-0.201c0.105-0.136,0.156-0.414,0.156-0.842c0-0.59-0.066-0.958-0.203-1.107
		c-0.142-0.15-0.871-0.59-2.188-1.323c-1.104-0.618-1.778-1.182-2.017-1.688c-0.245-0.507-0.364-1.106-0.364-1.801
		c0-0.987,0.128-1.714,0.39-2.183c0.262-0.469,0.702-0.83,1.323-1.086c0.627-0.252,1.35-0.38,2.174-0.38
		c0.821,0,1.519,0.104,2.091,0.312c0.573,0.208,1.013,0.483,1.319,0.824c0.308,0.343,0.496,0.657,0.559,0.95
		c0.063,0.291,0.096,0.749,0.096,1.368V28.994z"/>
	<path fill="none" stroke="#FFFFFF" stroke-width="0.25" d="M57.168,28.994h-3.331v-0.668c0-0.572-0.031-0.932-0.097-1.088
		c-0.066-0.149-0.228-0.225-0.488-0.225c-0.212,0-0.37,0.069-0.475,0.207c-0.104,0.143-0.158,0.351-0.158,0.631
		c0,0.377,0.025,0.656,0.079,0.832c0.052,0.176,0.212,0.372,0.473,0.583c0.266,0.21,0.807,0.518,1.626,0.921
		c1.092,0.533,1.807,1.036,2.15,1.508c0.34,0.472,0.511,1.154,0.511,2.055c0,1.006-0.129,1.764-0.39,2.277
		c-0.259,0.511-0.698,0.905-1.309,1.182c-0.611,0.275-1.347,0.412-2.212,0.412c-0.954,0-1.77-0.149-2.45-0.444
		c-0.679-0.297-1.146-0.703-1.4-1.212c-0.256-0.507-0.383-1.276-0.383-2.308v-0.595h3.332v0.782c0,0.663,0.041,1.096,0.128,1.292
		c0.082,0.199,0.249,0.3,0.497,0.3c0.264,0,0.452-0.067,0.558-0.201c0.105-0.136,0.156-0.414,0.156-0.842
		c0-0.59-0.066-0.958-0.203-1.107c-0.142-0.15-0.871-0.59-2.188-1.323c-1.104-0.618-1.778-1.182-2.017-1.688
		c-0.245-0.507-0.364-1.106-0.364-1.801c0-0.987,0.128-1.714,0.39-2.183c0.262-0.469,0.702-0.83,1.323-1.086
		c0.627-0.252,1.35-0.38,2.174-0.38c0.821,0,1.519,0.104,2.091,0.312c0.573,0.208,1.013,0.483,1.319,0.824
		c0.308,0.343,0.496,0.657,0.559,0.95c0.063,0.291,0.096,0.749,0.096,1.368V28.994z"/>
	<path fill="#FFFFFF" d="M61.824,29.834h-3.527v-0.83c0-0.954,0.112-1.691,0.329-2.212c0.22-0.514,0.663-0.974,1.327-1.37
		c0.665-0.397,1.526-0.596,2.587-0.596c1.271,0,2.231,0.224,2.878,0.675c0.642,0.45,1.032,1.004,1.163,1.656
		c0.129,0.654,0.192,2.005,0.192,4.043v6.203h-3.656V36.3c-0.229,0.441-0.525,0.771-0.887,0.991c-0.366,0.221-0.798,0.33-1.299,0.33
		c-0.657,0-1.26-0.185-1.81-0.552c-0.55-0.368-0.824-1.178-0.824-2.425v-1.016c0-0.923,0.146-1.554,0.437-1.889
		c0.292-0.333,1.014-0.726,2.169-1.172c1.235-0.484,1.894-0.812,1.979-0.977c0.088-0.168,0.133-0.51,0.133-1.025
		c0-0.646-0.051-1.065-0.145-1.26c-0.094-0.196-0.256-0.293-0.48-0.293c-0.252,0-0.412,0.08-0.473,0.247
		c-0.062,0.162-0.093,0.591-0.093,1.278V29.834z M63.015,31.526c-0.601,0.441-0.952,0.812-1.048,1.107
		c-0.097,0.3-0.143,0.727-0.143,1.285c0,0.638,0.04,1.051,0.126,1.237c0.082,0.187,0.25,0.28,0.499,0.28
		c0.234,0,0.388-0.073,0.458-0.218c0.07-0.146,0.107-0.53,0.107-1.149V31.526z"/>
	<path fill="none" stroke="#FFFFFF" stroke-width="0.25" d="M61.824,29.834h-3.527v-0.83c0-0.954,0.112-1.691,0.329-2.212
		c0.22-0.514,0.663-0.974,1.327-1.37c0.665-0.397,1.526-0.596,2.587-0.596c1.271,0,2.231,0.224,2.878,0.675
		c0.642,0.45,1.032,1.004,1.163,1.656c0.129,0.654,0.192,2.005,0.192,4.043v6.203h-3.656V36.3c-0.229,0.441-0.525,0.771-0.887,0.991
		c-0.366,0.221-0.798,0.33-1.299,0.33c-0.657,0-1.26-0.185-1.81-0.552c-0.55-0.368-0.824-1.178-0.824-2.425v-1.016
		c0-0.923,0.146-1.554,0.437-1.889c0.292-0.333,1.014-0.726,2.169-1.172c1.235-0.484,1.894-0.812,1.979-0.977
		c0.088-0.168,0.133-0.51,0.133-1.025c0-0.646-0.051-1.065-0.145-1.26c-0.094-0.196-0.256-0.293-0.48-0.293
		c-0.252,0-0.412,0.08-0.473,0.247c-0.062,0.162-0.093,0.591-0.093,1.278V29.834z M63.015,31.526
		c-0.601,0.441-0.952,0.812-1.048,1.107c-0.097,0.3-0.143,0.727-0.143,1.285c0,0.638,0.04,1.051,0.126,1.237
		c0.082,0.187,0.25,0.28,0.499,0.28c0.234,0,0.388-0.073,0.458-0.218c0.07-0.146,0.107-0.53,0.107-1.149V31.526z"/>
	<polygon fill="#2E2E2E" stroke="#FFFFFF" stroke-width="0.25" stroke-miterlimit="10" points="18.521,48.879 13.321,41.597 
		13.321,48.879 12.499,48.879 12.499,40.192 13.321,40.192 18.46,47.415 18.46,40.192 19.295,40.192 19.295,48.879 	"/>
	<path fill="#2E2E2E" stroke="#FFFFFF" stroke-width="0.25" stroke-miterlimit="10" d="M26.434,48.879v-0.466
		c-0.215,0.184-0.46,0.329-0.741,0.442c-0.276,0.111-0.585,0.166-0.924,0.166c-0.549,0-0.981-0.143-1.299-0.428
		c-0.317-0.287-0.476-0.666-0.476-1.144c0-0.287,0.062-0.535,0.187-0.756c0.122-0.217,0.293-0.398,0.522-0.54
		c0.227-0.145,0.498-0.254,0.814-0.328c0.317-0.076,0.672-0.113,1.059-0.113h0.869v-0.215c0-0.38-0.108-0.63-0.327-0.755
		c-0.218-0.121-0.507-0.185-0.863-0.185c-0.594,0-1.086,0.103-1.476,0.311l-0.286-0.597c0.222-0.134,0.488-0.232,0.793-0.297
		c0.307-0.063,0.612-0.094,0.914-0.094c0.676,0,1.182,0.123,1.516,0.374c0.333,0.25,0.502,0.613,0.502,1.088v3.535H26.434z
		 M26.434,46.367h-0.656c-0.648,0-1.145,0.084-1.479,0.25c-0.34,0.167-0.506,0.444-0.506,0.833c0,0.293,0.11,0.513,0.34,0.654
		c0.224,0.144,0.483,0.217,0.778,0.217c0.3,0,0.577-0.054,0.827-0.161c0.25-0.108,0.481-0.246,0.696-0.413V46.367z"/>
	<path fill="#2E2E2E" stroke="#FFFFFF" stroke-width="0.25" stroke-miterlimit="10" d="M32.775,48.902
		c-0.041,0-0.085,0.002-0.132,0.005c-0.048,0.005-0.073,0.007-0.083,0.007c-0.437,0-0.782-0.099-1.034-0.29
		c-0.254-0.194-0.381-0.532-0.381-1.015v-2.862H30.43v-0.724h0.715v-2.271h0.772v2.271h0.916v0.724h-0.916v2.837
		c0,0.396,0.221,0.592,0.666,0.592h0.263v0.727H32.775z"/>
	<path fill="#2E2E2E" stroke="#FFFFFF" stroke-width="0.25" stroke-miterlimit="10" d="M39.629,48.879v-0.702
		c-0.142,0.253-0.345,0.459-0.612,0.61c-0.268,0.156-0.57,0.234-0.912,0.234c-0.57,0-1.009-0.158-1.319-0.476
		c-0.311-0.318-0.465-0.752-0.465-1.3v-3.222h0.775v3.093c0,0.334,0.096,0.618,0.29,0.851c0.194,0.235,0.477,0.354,0.85,0.354
		c0.214,0,0.409-0.047,0.586-0.138c0.172-0.092,0.322-0.209,0.439-0.353c0.12-0.143,0.21-0.303,0.273-0.483
		c0.062-0.177,0.095-0.35,0.095-0.517v-2.807h0.774v4.854H39.629z"/>
	<path fill="#2E2E2E" stroke="#FFFFFF" stroke-width="0.25" stroke-miterlimit="10" d="M46.912,44.879
		c-0.215-0.182-0.45-0.271-0.703-0.271c-0.157,0-0.305,0.039-0.444,0.124c-0.14,0.083-0.261,0.196-0.37,0.34
		c-0.109,0.144-0.19,0.305-0.253,0.493c-0.056,0.186-0.087,0.384-0.087,0.59v2.725h-0.774v-4.855h0.774v0.667
		c0.134-0.239,0.313-0.432,0.537-0.584c0.222-0.148,0.472-0.225,0.75-0.225c0.197,0,0.371,0.027,0.519,0.083
		c0.144,0.056,0.294,0.149,0.444,0.285L46.912,44.879z"/>
	<path fill="#2E2E2E" stroke="#FFFFFF" stroke-width="0.25" stroke-miterlimit="10" d="M53.491,48.879v-0.466
		c-0.213,0.184-0.458,0.329-0.738,0.442c-0.276,0.111-0.586,0.166-0.927,0.166c-0.547,0-0.979-0.143-1.297-0.428
		c-0.318-0.287-0.476-0.666-0.476-1.144c0-0.287,0.06-0.535,0.185-0.756c0.121-0.217,0.298-0.398,0.523-0.54
		c0.227-0.145,0.498-0.254,0.815-0.328c0.317-0.076,0.67-0.113,1.06-0.113h0.868v-0.215c0-0.38-0.109-0.63-0.329-0.755
		c-0.217-0.121-0.503-0.185-0.861-0.185c-0.594,0-1.088,0.103-1.477,0.311l-0.286-0.597c0.222-0.134,0.487-0.232,0.793-0.297
		c0.308-0.063,0.611-0.094,0.916-0.094c0.672,0,1.178,0.123,1.515,0.374c0.333,0.25,0.501,0.613,0.501,1.088v3.535H53.491z
		 M53.491,46.367h-0.655c-0.648,0-1.144,0.084-1.479,0.25c-0.338,0.167-0.505,0.444-0.505,0.833c0,0.293,0.111,0.513,0.338,0.654
		c0.227,0.144,0.484,0.217,0.779,0.217c0.302,0,0.579-0.054,0.826-0.161c0.252-0.108,0.483-0.246,0.697-0.413V46.367z"/>
	
		<rect x="58.049" y="40.192" fill="#2E2E2E" stroke="#FFFFFF" stroke-width="0.25" stroke-miterlimit="10" width="0.774" height="8.687"/>
	<path fill="#2E2E2E" stroke="#FFFFFF" stroke-width="0.25" stroke-miterlimit="10" d="M63.129,46.475
		c0.009,0.263,0.052,0.502,0.131,0.722c0.079,0.221,0.191,0.41,0.338,0.572c0.147,0.164,0.327,0.289,0.537,0.386
		c0.212,0.094,0.45,0.142,0.722,0.142c0.36,0,0.675-0.061,0.934-0.18c0.255-0.117,0.494-0.282,0.716-0.486l0.5,0.486
		c-0.228,0.234-0.519,0.44-0.868,0.626c-0.348,0.185-0.784,0.279-1.308,0.279c-0.388,0-0.738-0.068-1.041-0.202
		c-0.305-0.134-0.563-0.319-0.776-0.552c-0.212-0.237-0.372-0.514-0.488-0.835c-0.112-0.321-0.169-0.668-0.169-1.04
		c0-0.335,0.054-0.652,0.162-0.953c0.111-0.303,0.27-0.569,0.479-0.803c0.208-0.234,0.461-0.42,0.764-0.555
		c0.3-0.135,0.638-0.2,1.012-0.2c0.378,0,0.713,0.068,0.998,0.206c0.287,0.14,0.529,0.326,0.727,0.563
		c0.2,0.24,0.349,0.518,0.448,0.83c0.098,0.313,0.151,0.643,0.158,0.993H63.129z M66.08,45.372
		c-0.077-0.149-0.178-0.282-0.302-0.399c-0.123-0.12-0.272-0.214-0.448-0.283c-0.172-0.072-0.367-0.107-0.58-0.107
		c-0.454,0-0.814,0.122-1.081,0.367c-0.266,0.242-0.432,0.543-0.492,0.895h3.069C66.215,45.68,66.161,45.521,66.08,45.372"/>
	<path fill="#2E2E2E" stroke="#FFFFFF" stroke-width="0.5" stroke-miterlimit="10" d="M1.001,15.989
		c0.231,2.63,1.916,4.906,4.216,3.722c2.008-1.033,3.119-1.43,5.322,1.745c0,0,0.147-0.268,0.261-0.669
		c-0.741-1.541-2.948-4.423-5.536-3.083C2.627,19.067,1.874,18.212,1.001,15.989"/>
	<path fill="#2E2E2E" stroke="#FFFFFF" stroke-width="0.5" stroke-miterlimit="10" d="M5.997,8.851
		c-0.654,2.56,0.183,5.265,2.747,4.91c2.234-0.308,3.414-0.314,4.441,3.41c0,0,0.228-0.204,0.47-0.544
		c-0.189-1.699-1.316-5.149-4.208-4.746C6.51,12.295,6.082,11.239,5.997,8.851"/>
	<path fill="#2E2E2E" stroke="#FFFFFF" stroke-width="0.5" stroke-miterlimit="10" d="M13.077,3.774
		c-1.462,2.198-1.573,5.026,0.961,5.542c2.213,0.45,3.327,0.834,3.06,4.69c0,0,0.286-0.118,0.624-0.358
		c0.386-1.665,0.468-5.295-2.396-5.87C12.42,7.194,12.367,6.055,13.077,3.774"/>
	<path fill="#2E2E2E" stroke="#FFFFFF" stroke-width="0.5" stroke-miterlimit="10" d="M21.441,1.33
		c-2.111,1.59-3.155,4.223-0.934,5.549c1.939,1.155,2.866,1.889,1.338,5.439c0,0,0.303-0.017,0.704-0.13
		c0.916-1.448,2.195-4.844-0.313-6.334C19.687,4.34,20.014,3.248,21.441,1.33"/>
	<path fill="#2E2E2E" stroke="#FFFFFF" stroke-width="0.5" stroke-miterlimit="10" d="M30.142,1.799
		c-2.52,0.8-4.373,2.938-2.718,4.924c1.443,1.735,2.073,2.734-0.546,5.574c0,0,0.296,0.085,0.712,0.111
		c1.342-1.059,3.676-3.84,1.803-6.079C27.488,4.055,28.157,3.135,30.142,1.799"/>
	<path fill="#2E2E2E" stroke="#FFFFFF" stroke-width="0.5" stroke-miterlimit="10" d="M38.192,5.124
		c-2.641-0.08-5.099,1.324-4.194,3.745c0.787,2.116,1.048,3.267-2.366,5.078c0,0,0.251,0.179,0.634,0.339
		c1.619-0.553,4.742-2.403,3.718-5.136C34.943,6.375,35.88,5.727,38.192,5.124"/>
	<path fill="#2E2E2E" stroke="#FFFFFF" stroke-width="0.5" stroke-miterlimit="10" d="M44.688,10.929
		c-2.463-0.951-5.251-0.442-5.2,2.146c0.04,2.256-0.092,3.429-3.913,4.005c0,0,0.174,0.25,0.485,0.532
		c1.708,0.013,5.271-0.698,5.208-3.615C41.207,11.032,42.307,10.733,44.688,10.929"/>
	<path fill="#2E2E2E" stroke="#FFFFFF" stroke-width="0.5" stroke-miterlimit="10" d="M48.892,18.562
		c-2.009-1.714-4.806-2.157-5.619,0.299c-0.709,2.143-1.225,3.205-5.021,2.484c0,0,0.086,0.294,0.284,0.66
		c1.609,0.579,5.203,1.091,6.112-1.683C45.573,17.504,46.709,17.586,48.892,18.562"/>
</g>
</svg>
