<?xml version="1.0" encoding="utf-8"?>
<!-- Generator: Adobe Illustrator 16.0.0, SVG Export Plug-In . SVG Version: 6.00 Build 0)  -->
<!DOCTYPE svg PUBLIC "-//W3C//DTD SVG 1.1//EN" "http://www.w3.org/Graphics/SVG/1.1/DTD/svg11.dtd">
<svg version="1.1" id="Layer_1" xmlns="http://www.w3.org/2000/svg" xmlns:xlink="http://www.w3.org/1999/xlink" x="0px" y="0px"
	 width="800px" height="600px" viewBox="0 0 800 600" enable-background="new 0 0 800 600" xml:space="preserve">
<g>
	<path fill="#4BA547" stroke="#FFFFFF" stroke-width="0.25" stroke-miterlimit="10" d="M440.696,303.699
		c0,82.74-67.064,149.834-149.811,149.834c-82.74,0-149.8-67.094-149.8-149.834c0-82.734,67.06-149.788,149.8-149.788
		C373.632,153.911,440.696,220.965,440.696,303.699"/>
	<path fill="#4BA547" stroke="#FFFFFF" stroke-width="0.25" stroke-miterlimit="10" d="M18.243,179.56
		c2.743,30.827,22.498,57.463,49.397,43.62c23.515-12.095,36.563-16.756,62.34,20.417c0,0,1.726-3.145,3.074-7.823
		c-8.701-18.035-34.536-51.802-64.885-36.116C37.301,215.618,28.507,205.621,18.243,179.56"/>
	<path fill="#4BA547" stroke="#FFFFFF" stroke-width="0.25" stroke-miterlimit="10" d="M76.799,95.965
		c-7.648,30.002,2.14,61.672,32.129,57.504c26.208-3.598,40.022-3.685,52.047,39.964c0,0,2.639-2.389,5.498-6.364
		c-2.244-19.912-15.419-60.347-49.263-55.575C82.815,136.324,77.805,123.985,76.799,95.965"/>
	<path fill="#4BA547" stroke="#FFFFFF" stroke-width="0.25" stroke-miterlimit="10" d="M159.686,36.531
		c-17.117,25.759-18.402,58.865,11.287,64.915c25.898,5.271,38.986,9.77,35.854,54.924c0,0,3.313-1.401,7.277-4.226
		c4.521-19.487,5.475-61.974-28.043-68.715C152.007,76.571,151.414,63.227,159.686,36.531"/>
	<path fill="#4BA547" stroke="#FFFFFF" stroke-width="0.25" stroke-miterlimit="10" d="M257.676,7.907
		c-24.736,18.616-36.93,49.426-10.938,64.996c22.743,13.513,33.547,22.138,15.623,63.712c0,0,3.585-0.227,8.27-1.592
		c10.723-16.901,25.747-56.656-3.632-74.127C237.089,43.14,240.949,30.359,257.676,7.907"/>
	<path fill="#4BA547" stroke="#FFFFFF" stroke-width="0.25" stroke-miterlimit="10" d="M359.526,13.394
		c-29.491,9.363-51.181,34.401-31.804,57.679c16.901,20.313,24.306,32.007-6.398,65.287c0,0,3.458,0.999,8.334,1.29
		c15.721-12.408,43.05-44.979,21.115-71.174C328.478,39.821,336.319,29.034,359.526,13.394"/>
	<path fill="#4BA547" stroke="#FFFFFF" stroke-width="0.25" stroke-miterlimit="10" d="M453.844,52.3
		c-30.942-0.907-59.695,15.506-49.124,43.893c9.213,24.823,12.305,38.266-27.688,59.492c0,0,2.929,2.075,7.445,3.958
		c18.93-6.469,55.534-28.136,43.526-60.131C415.786,66.969,426.76,59.408,453.844,52.3"/>
	<path fill="#4BA547" stroke="#FFFFFF" stroke-width="0.25" stroke-miterlimit="10" d="M529.923,120.317
		c-28.839-11.135-61.479-5.155-60.944,25.137c0.546,26.422-1.046,40.162-45.775,46.927c0,0,2.068,2.935,5.673,6.201
		c20.027,0.169,61.724-8.148,61.003-42.323C489.157,121.544,502.015,118.034,529.923,120.317"/>
	<path fill="#4BA547" stroke="#FFFFFF" stroke-width="0.25" stroke-miterlimit="10" d="M579.128,209.719
		c-23.504-20.092-56.26-25.282-65.745,3.493c-8.323,25.103-14.367,37.54-58.807,29.102c0,0,0.987,3.435,3.313,7.73
		c18.831,6.776,60.934,12.786,71.559-19.714C540.303,197.31,553.602,198.287,579.128,209.719"/>
	<polygon fill="#FFFFFF" stroke="#FFFFFF" stroke-width="0.5" stroke-miterlimit="10" points="53.743,253.878 130.241,253.878 
		130.241,289.181 99.652,289.181 99.652,322.646 128.277,322.646 128.277,356.229 99.652,356.229 99.652,395.019 133.298,395.019 
		133.298,430.367 53.743,430.367 	"/>
	<polygon fill="#FFFFFF" points="53.743,253.878 130.241,253.878 130.241,289.181 99.652,289.181 99.652,322.646 128.277,322.646 
		128.277,356.229 99.652,356.229 99.652,395.019 133.298,395.019 133.298,430.367 53.743,430.367 	"/>
	<path fill="#FFFFFF" stroke="#FFFFFF" stroke-width="0.5" stroke-miterlimit="10" d="M235.113,331.934h-39.005v-7.857
		c0-6.661-0.389-10.915-1.139-12.692c-0.785-1.791-2.691-2.663-5.766-2.663c-2.464,0-4.324,0.791-5.51,2.418
		c-1.284,1.663-1.871,4.092-1.871,7.381c0,4.429,0.308,7.672,0.918,9.753c0.593,2.069,2.482,4.336,5.556,6.8
		c3.081,2.465,9.439,6.056,19.028,10.811c12.77,6.23,21.179,12.136,25.19,17.623c3.992,5.533,5.968,13.564,5.968,24.107
		c0,11.764-1.546,20.656-4.545,26.619c-3.074,6.045-8.183,10.625-15.337,13.891c-7.149,3.231-15.797,4.848-25.91,4.848
		c-11.171,0-20.767-1.744-28.677-5.254c-7.975-3.464-13.456-8.219-16.442-14.17c-2.981-5.975-4.446-14.938-4.446-27.003v-6.998
		h39.034v9.149c0,7.765,0.482,12.833,1.452,15.18c0.988,2.313,2.923,3.488,5.835,3.488c3.127,0,5.313-0.826,6.534-2.372
		c1.243-1.534,1.866-4.824,1.866-9.868c0-6.894-0.819-11.218-2.412-12.938c-1.674-1.778-10.183-6.951-25.619-15.507
		c-12.927-7.242-20.831-13.879-23.632-19.772c-2.842-5.94-4.267-12.95-4.267-21.087c0-11.564,1.528-20.074,4.562-25.59
		c3.063-5.434,8.242-9.694,15.542-12.67c7.3-2.993,15.792-4.452,25.451-4.452c9.59,0,17.768,1.22,24.486,3.65
		c6.712,2.417,11.886,5.655,15.489,9.618c3.586,3.982,5.76,7.708,6.498,11.114c0.79,3.44,1.168,8.753,1.168,16.053V331.934z"/>
	<path fill="#FFFFFF" d="M235.113,331.934h-39.005v-7.857c0-6.661-0.389-10.915-1.139-12.692c-0.785-1.791-2.691-2.663-5.766-2.663
		c-2.464,0-4.324,0.791-5.51,2.418c-1.284,1.663-1.871,4.092-1.871,7.381c0,4.429,0.308,7.672,0.918,9.753
		c0.593,2.069,2.482,4.336,5.556,6.8c3.081,2.465,9.439,6.056,19.028,10.811c12.77,6.23,21.179,12.136,25.19,17.623
		c3.992,5.533,5.968,13.564,5.968,24.107c0,11.764-1.546,20.656-4.545,26.619c-3.074,6.045-8.183,10.625-15.337,13.891
		c-7.149,3.231-15.797,4.848-25.91,4.848c-11.171,0-20.767-1.744-28.677-5.254c-7.975-3.464-13.456-8.219-16.442-14.17
		c-2.981-5.975-4.446-14.938-4.446-27.003v-6.998h39.034v9.149c0,7.765,0.482,12.833,1.452,15.18
		c0.988,2.313,2.923,3.488,5.835,3.488c3.127,0,5.313-0.826,6.534-2.372c1.243-1.534,1.866-4.824,1.866-9.868
		c0-6.894-0.819-11.218-2.412-12.938c-1.674-1.778-10.183-6.951-25.619-15.507c-12.927-7.242-20.831-13.879-23.632-19.772
		c-2.842-5.94-4.267-12.95-4.267-21.087c0-11.564,1.528-20.074,4.562-25.59c3.063-5.434,8.242-9.694,15.542-12.67
		c7.3-2.993,15.792-4.452,25.451-4.452c9.59,0,17.768,1.22,24.486,3.65c6.712,2.417,11.886,5.655,15.489,9.618
		c3.586,3.982,5.76,7.708,6.498,11.114c0.79,3.44,1.168,8.753,1.168,16.053V331.934z"/>
	<path fill="#FFFFFF" stroke="#FFFFFF" stroke-width="0.5" stroke-miterlimit="10" d="M340.172,331.934h-39.005v-7.857
		c0-6.661-0.365-10.915-1.133-12.692c-0.779-1.791-2.686-2.663-5.742-2.663c-2.464,0-4.325,0.791-5.54,2.418
		c-1.267,1.663-1.859,4.092-1.859,7.381c0,4.429,0.308,7.672,0.907,9.753c0.61,2.069,2.493,4.336,5.574,6.8
		c3.086,2.465,9.433,6.056,19.005,10.811c12.792,6.23,21.196,12.136,25.189,17.623c3.969,5.533,5.992,13.564,5.992,24.107
		c0,11.764-1.517,20.656-4.563,26.619c-3.04,6.045-8.148,10.625-15.344,13.891c-7.143,3.231-15.75,4.848-25.858,4.848
		c-11.199,0-20.766-1.744-28.711-5.254c-7.979-3.464-13.432-8.219-16.425-14.17c-2.981-5.975-4.487-14.938-4.487-27.003v-6.998
		h39.028v9.149c0,7.765,0.511,12.833,1.511,15.18c0.942,2.313,2.895,3.488,5.841,3.488c3.081,0,5.277-0.826,6.515-2.372
		c1.227-1.534,1.837-4.824,1.837-9.868c0-6.894-0.785-11.218-2.383-12.938c-1.691-1.778-10.207-6.951-25.614-15.507
		c-12.926-7.242-20.837-13.879-23.638-19.772c-2.871-5.94-4.283-12.95-4.283-21.087c0-11.564,1.528-20.074,4.58-25.59
		c3.063-5.434,8.229-9.694,15.542-12.67c7.3-2.993,15.791-4.452,25.457-4.452c9.555,0,17.738,1.22,24.433,3.65
		c6.73,2.417,11.921,5.655,15.507,9.618c3.586,3.982,5.76,7.708,6.544,11.114c0.773,3.44,1.122,8.753,1.122,16.053V331.934z"/>
	<path fill="#FFFFFF" d="M340.172,331.934h-39.005v-7.857c0-6.661-0.365-10.915-1.133-12.692c-0.779-1.791-2.686-2.663-5.742-2.663
		c-2.464,0-4.325,0.791-5.54,2.418c-1.267,1.663-1.859,4.092-1.859,7.381c0,4.429,0.308,7.672,0.907,9.753
		c0.61,2.069,2.493,4.336,5.574,6.8c3.086,2.465,9.433,6.056,19.005,10.811c12.792,6.23,21.196,12.136,25.189,17.623
		c3.969,5.533,5.992,13.564,5.992,24.107c0,11.764-1.517,20.656-4.563,26.619c-3.04,6.045-8.148,10.625-15.344,13.891
		c-7.143,3.231-15.75,4.848-25.858,4.848c-11.199,0-20.766-1.744-28.711-5.254c-7.979-3.464-13.432-8.219-16.425-14.17
		c-2.981-5.975-4.487-14.938-4.487-27.003v-6.998h39.028v9.149c0,7.765,0.511,12.833,1.511,15.18
		c0.942,2.313,2.895,3.488,5.841,3.488c3.081,0,5.277-0.826,6.515-2.372c1.227-1.534,1.837-4.824,1.837-9.868
		c0-6.894-0.785-11.218-2.383-12.938c-1.691-1.778-10.207-6.951-25.614-15.507c-12.926-7.242-20.837-13.879-23.638-19.772
		c-2.871-5.94-4.283-12.95-4.283-21.087c0-11.564,1.528-20.074,4.58-25.59c3.063-5.434,8.229-9.694,15.542-12.67
		c7.3-2.993,15.791-4.452,25.457-4.452c9.555,0,17.738,1.22,24.433,3.65c6.73,2.417,11.921,5.655,15.507,9.618
		c3.586,3.982,5.76,7.708,6.544,11.114c0.773,3.44,1.122,8.753,1.122,16.053V331.934z"/>
	<path fill="#FFFFFF" stroke="#FFFFFF" stroke-width="0.5" stroke-miterlimit="10" d="M455.075,360.564h-57.009v31.304
		c0,6.567,0.47,10.775,1.424,12.624c0.923,1.905,2.749,2.871,5.451,2.871c3.319,0,5.533-1.268,6.703-3.767
		c1.121-2.5,1.667-7.381,1.667-14.553v-19.064h41.765v10.66c0,8.927-0.58,15.797-1.674,20.597
		c-1.127,4.813-3.789,9.904-7.915,15.368c-4.115,5.463-9.393,9.543-15.751,12.264c-6.37,2.719-14.327,4.103-23.911,4.103
		c-9.322,0-17.546-1.359-24.678-4.034c-7.12-2.731-12.658-6.382-16.593-11.077c-3.981-4.707-6.712-9.857-8.241-15.46
		c-1.512-5.649-2.284-13.855-2.284-24.573v-42.172c0-12.659,1.697-22.668,5.131-29.921c3.417-7.34,8.992-12.92,16.75-16.832
		c7.811-3.871,16.756-5.824,26.829-5.824c12.345,0,22.556,2.348,30.576,7.039c8.056,4.685,13.67,10.903,16.925,18.651
		c3.186,7.729,4.835,18.598,4.835,32.594V360.564z M410.922,337.037V326.46c0-7.463-0.395-12.311-1.18-14.461
		c-0.79-2.208-2.436-3.278-4.923-3.278c-3.052,0-4.958,0.895-5.667,2.756c-0.744,1.848-1.086,6.856-1.086,14.983v10.577H410.922z"/>
	<path fill="#FFFFFF" d="M455.075,360.564h-57.009v31.304c0,6.567,0.47,10.775,1.424,12.624c0.923,1.905,2.749,2.871,5.451,2.871
		c3.319,0,5.533-1.268,6.703-3.767c1.121-2.5,1.667-7.381,1.667-14.553v-19.064h41.765v10.66c0,8.927-0.58,15.797-1.674,20.597
		c-1.127,4.813-3.789,9.904-7.915,15.368c-4.115,5.463-9.393,9.543-15.751,12.264c-6.37,2.719-14.327,4.103-23.911,4.103
		c-9.322,0-17.546-1.359-24.678-4.034c-7.12-2.731-12.658-6.382-16.593-11.077c-3.981-4.707-6.712-9.857-8.241-15.46
		c-1.512-5.649-2.284-13.855-2.284-24.573v-42.172c0-12.659,1.697-22.668,5.131-29.921c3.417-7.34,8.992-12.92,16.75-16.832
		c7.811-3.871,16.756-5.824,26.829-5.824c12.345,0,22.556,2.348,30.576,7.039c8.056,4.685,13.67,10.903,16.925,18.651
		c3.186,7.729,4.835,18.598,4.835,32.594V360.564z M410.922,337.037V326.46c0-7.463-0.395-12.311-1.18-14.461
		c-0.79-2.208-2.436-3.278-4.923-3.278c-3.052,0-4.958,0.895-5.667,2.756c-0.744,1.848-1.086,6.856-1.086,14.983v10.577H410.922z"/>
	<path fill="#FFFFFF" stroke="#FFFFFF" stroke-width="0.5" stroke-miterlimit="10" d="M514.266,285.693l-0.756,13.339
		c3.15-5.317,7.079-9.299,11.683-11.973c4.615-2.65,9.95-3.952,15.972-3.952c7.567,0,13.751,1.784,18.528,5.312
		c4.813,3.586,7.917,8.039,9.276,13.484c1.384,5.388,2.069,14.396,2.069,27.055v101.397h-44.032V330.179
		c0-9.938-0.337-16.029-0.977-18.191c-0.675-2.209-2.488-3.29-5.463-3.29c-3.139,0-5.068,1.244-5.883,3.755
		c-0.813,2.511-1.174,9.218-1.174,20.121v97.782h-44.031V285.693H514.266z"/>
	<path fill="#FFFFFF" d="M514.266,285.693l-0.756,13.339c3.15-5.317,7.079-9.299,11.683-11.973c4.615-2.65,9.95-3.952,15.972-3.952
		c7.567,0,13.751,1.784,18.528,5.312c4.813,3.586,7.917,8.039,9.276,13.484c1.384,5.388,2.069,14.396,2.069,27.055v101.397h-44.032
		V330.179c0-9.938-0.337-16.029-0.977-18.191c-0.675-2.209-2.488-3.29-5.463-3.29c-3.139,0-5.068,1.244-5.883,3.755
		c-0.813,2.511-1.174,9.218-1.174,20.121v97.782h-44.031V285.693H514.266z"/>
	<path fill="#FFFFFF" stroke="#FFFFFF" stroke-width="0.5" stroke-miterlimit="10" d="M676.143,331.934h-39.045v-7.857
		c0-6.661-0.384-10.915-1.128-12.692c-0.79-1.791-2.674-2.663-5.719-2.663c-2.511,0-4.348,0.791-5.603,2.418
		c-1.209,1.663-1.837,4.092-1.837,7.381c0,4.429,0.313,7.672,0.952,9.753c0.594,2.069,2.488,4.336,5.546,6.8
		c3.092,2.465,9.415,6.056,19.017,10.811c12.775,6.23,21.18,12.136,25.166,17.623c3.987,5.533,6.01,13.564,6.01,24.107
		c0,11.764-1.558,20.656-4.591,26.619c-3.081,6.045-8.161,10.625-15.298,13.891c-7.184,3.231-15.809,4.848-25.887,4.848
		c-11.217,0-20.784-1.744-28.723-5.254c-7.975-3.464-13.45-8.219-16.414-14.17c-2.975-5.975-4.464-14.938-4.464-27.003v-6.998
		h38.999v9.149c0,7.765,0.512,12.833,1.5,15.18c0.964,2.313,2.917,3.488,5.847,3.488c3.104,0,5.266-0.826,6.51-2.372
		c1.244-1.534,1.872-4.824,1.872-9.868c0-6.894-0.803-11.218-2.407-12.938c-1.661-1.778-10.194-6.951-25.607-15.507
		c-12.949-7.242-20.831-13.879-23.667-19.772c-2.825-5.94-4.254-12.95-4.254-21.087c0-11.564,1.534-20.074,4.579-25.59
		c3.069-5.434,8.23-9.694,15.53-12.67c7.323-2.993,15.785-4.452,25.433-4.452c9.613,0,17.763,1.22,24.493,3.65
		c6.718,2.417,11.868,5.655,15.471,9.618c3.58,3.982,5.813,7.708,6.533,11.114c0.767,3.44,1.186,8.753,1.186,16.053V331.934z"/>
	<path fill="#FFFFFF" d="M676.143,331.934h-39.045v-7.857c0-6.661-0.384-10.915-1.128-12.692c-0.79-1.791-2.674-2.663-5.719-2.663
		c-2.511,0-4.348,0.791-5.603,2.418c-1.209,1.663-1.837,4.092-1.837,7.381c0,4.429,0.313,7.672,0.952,9.753
		c0.594,2.069,2.488,4.336,5.546,6.8c3.092,2.465,9.415,6.056,19.017,10.811c12.775,6.23,21.18,12.136,25.166,17.623
		c3.987,5.533,6.01,13.564,6.01,24.107c0,11.764-1.558,20.656-4.591,26.619c-3.081,6.045-8.161,10.625-15.298,13.891
		c-7.184,3.231-15.809,4.848-25.887,4.848c-11.217,0-20.784-1.744-28.723-5.254c-7.975-3.464-13.45-8.219-16.414-14.17
		c-2.975-5.975-4.464-14.938-4.464-27.003v-6.998h38.999v9.149c0,7.765,0.512,12.833,1.5,15.18c0.964,2.313,2.917,3.488,5.847,3.488
		c3.104,0,5.266-0.826,6.51-2.372c1.244-1.534,1.872-4.824,1.872-9.868c0-6.894-0.803-11.218-2.407-12.938
		c-1.661-1.778-10.194-6.951-25.607-15.507c-12.949-7.242-20.831-13.879-23.667-19.772c-2.825-5.94-4.254-12.95-4.254-21.087
		c0-11.564,1.534-20.074,4.579-25.59c3.069-5.434,8.23-9.694,15.53-12.67c7.323-2.993,15.785-4.452,25.433-4.452
		c9.613,0,17.763,1.22,24.493,3.65c6.718,2.417,11.868,5.655,15.471,9.618c3.58,3.982,5.813,7.708,6.533,11.114
		c0.767,3.44,1.186,8.753,1.186,16.053V331.934z"/>
	<path fill="#FFFFFF" stroke="#FFFFFF" stroke-width="0.5" stroke-miterlimit="10" d="M730.59,341.722h-41.266v-9.683
		c0-11.206,1.278-19.831,3.836-25.898c2.581-6.073,7.788-11.426,15.565-16.071c7.741-4.69,17.866-6.962,30.257-6.962
		c14.914,0,26.154,2.604,33.722,7.881c7.544,5.277,12.101,11.746,13.611,19.395c1.512,7.661,2.279,23.445,2.279,47.381v72.604
		h-42.847v-12.903c-2.65,5.149-6.161,9.021-10.404,11.625c-4.22,2.579-9.287,3.882-15.203,3.882c-7.695,0-14.775-2.162-21.18-6.486
		c-6.428-4.324-9.637-13.809-9.637-28.421v-11.868c0-10.833,1.697-18.214,5.08-22.144c3.405-3.918,11.902-8.462,25.422-13.705
		c14.46-5.695,22.202-9.521,23.225-11.449c1.012-1.987,1.523-5.963,1.523-11.984c0-7.557-0.581-12.509-1.675-14.786
		c-1.174-2.278-3.033-3.406-5.637-3.406c-2.977,0-4.836,0.931-5.557,2.859c-0.767,1.941-1.116,6.939-1.116,14.973V341.722z
		 M744.574,361.587c-7.08,5.126-11.148,9.486-12.311,12.973c-1.069,3.487-1.674,8.485-1.674,15.029
		c0,7.486,0.534,12.311,1.511,14.484s2.918,3.29,5.824,3.29c2.754,0,4.522-0.872,5.382-2.569c0.837-1.72,1.268-6.185,1.268-13.484
		V361.587z"/>
	<path fill="#FFFFFF" d="M730.59,341.722h-41.266v-9.683c0-11.206,1.278-19.831,3.836-25.898
		c2.581-6.073,7.788-11.426,15.565-16.071c7.741-4.69,17.866-6.962,30.257-6.962c14.914,0,26.154,2.604,33.722,7.881
		c7.544,5.277,12.101,11.746,13.611,19.395c1.512,7.661,2.279,23.445,2.279,47.381v72.604h-42.847v-12.903
		c-2.65,5.149-6.161,9.021-10.404,11.625c-4.22,2.579-9.287,3.882-15.203,3.882c-7.695,0-14.775-2.162-21.18-6.486
		c-6.428-4.324-9.637-13.809-9.637-28.421v-11.868c0-10.833,1.697-18.214,5.08-22.144c3.405-3.918,11.902-8.462,25.422-13.705
		c14.46-5.695,22.202-9.521,23.225-11.449c1.012-1.987,1.523-5.963,1.523-11.984c0-7.557-0.581-12.509-1.675-14.786
		c-1.174-2.278-3.033-3.406-5.637-3.406c-2.977,0-4.836,0.931-5.557,2.859c-0.767,1.941-1.116,6.939-1.116,14.973V341.722z
		 M744.574,361.587c-7.08,5.126-11.148,9.486-12.311,12.973c-1.069,3.487-1.674,8.485-1.674,15.029
		c0,7.486,0.534,12.311,1.511,14.484s2.918,3.29,5.824,3.29c2.754,0,4.522-0.872,5.382-2.569c0.837-1.72,1.268-6.185,1.268-13.484
		V361.587z"/>
	<polygon fill="#FFFFFF" points="223.466,564.775 162.55,479.502 162.55,564.775 152.931,564.775 152.931,463.042 162.55,463.042 
		222.751,547.643 222.751,463.042 232.516,463.042 232.516,564.775 	"/>
	<path fill="#FFFFFF" d="M316.139,564.775v-5.428c-2.522,2.14-5.388,3.859-8.643,5.16c-3.278,1.291-6.893,1.942-10.851,1.942
		c-6.434,0-11.508-1.675-15.209-5.021c-3.691-3.348-5.58-7.789-5.58-13.356c0-3.348,0.709-6.301,2.174-8.869
		c1.413-2.545,3.481-4.685,6.12-6.347c2.645-1.65,5.817-2.93,9.532-3.848c3.731-0.837,7.863-1.29,12.42-1.29h10.171v-2.511
		c0-4.487-1.267-7.393-3.841-8.857c-2.54-1.43-5.911-2.151-10.119-2.151c-6.933,0-12.711,1.197-17.262,3.616l-3.342-6.976
		c2.598-1.58,5.69-2.719,9.282-3.475c3.592-0.733,7.178-1.104,10.682-1.104c7.945,0,13.868,1.465,17.791,4.382
		c3.895,2.93,5.853,7.173,5.853,12.74v41.393H316.139z M316.139,535.367h-7.672c-7.613,0-13.402,0.977-17.348,2.918
		c-3.964,1.965-5.935,5.196-5.935,9.787c0,3.429,1.361,5.976,3.976,7.637c2.668,1.686,5.708,2.534,9.142,2.534
		c3.522,0,6.725-0.628,9.683-1.872c2.929-1.278,5.632-2.894,8.154-4.834V535.367z"/>
	<path fill="#FFFFFF" d="M390.399,565.032c-0.441,0-0.97,0.022-1.546,0.069c-0.529,0.093-0.866,0.117-0.954,0.117
		c-5.108,0-9.142-1.152-12.112-3.43c-2.999-2.255-4.493-6.208-4.493-11.881v-33.477h-8.34V507.9h8.34v-26.586h9.073V507.9h10.758
		v8.531h-10.758v33.222c0,4.603,2.599,6.893,7.817,6.893h3.058v8.486H390.399z"/>
	<path fill="#FFFFFF" d="M470.676,564.775v-8.229c-1.674,2.976-4.057,5.383-7.173,7.161c-3.104,1.824-6.684,2.743-10.659,2.743
		c-6.684,0-11.856-1.859-15.482-5.579c-3.627-3.697-5.418-8.776-5.418-15.171v-37.8h9.044v36.278c0,3.882,1.163,7.219,3.418,9.962
		c2.278,2.72,5.591,4.091,9.962,4.091c2.521,0,4.813-0.546,6.847-1.593c2.034-1.068,3.742-2.441,5.138-4.125
		c1.418-1.663,2.464-3.546,3.208-5.662c0.756-2.057,1.116-4.068,1.116-6.032V507.9h9.09v56.875H470.676z"/>
	<path fill="#FFFFFF" d="M555.973,517.966c-2.511-2.174-5.276-3.231-8.253-3.231c-1.837,0-3.604,0.512-5.207,1.477
		c-1.628,0.977-3.046,2.289-4.301,3.963c-1.267,1.674-2.268,3.627-2.941,5.789c-0.697,2.209-1.058,4.511-1.058,6.894v31.919h-9.055
		V507.9h9.055v7.834c1.604-2.79,3.673-5.092,6.3-6.835c2.558-1.768,5.51-2.639,8.776-2.639c2.313,0,4.336,0.337,6.057,0.987
		c1.708,0.617,3.463,1.732,5.207,3.36L555.973,517.966z"/>
	<path fill="#FFFFFF" d="M633.041,564.775v-5.428c-2.511,2.14-5.383,3.859-8.649,5.16c-3.231,1.291-6.857,1.942-10.845,1.942
		c-6.439,0-11.508-1.675-15.238-5.021c-3.721-3.348-5.546-7.789-5.546-13.356c0-3.348,0.697-6.301,2.197-8.869
		c1.396-2.545,3.441-4.685,6.114-6.347c2.627-1.65,5.788-2.93,9.521-3.848c3.731-0.837,7.869-1.29,12.426-1.29h10.148v-2.511
		c0-4.487-1.303-7.393-3.825-8.857c-2.557-1.43-5.929-2.151-10.09-2.151c-6.997,0-12.751,1.197-17.272,3.616l-3.349-6.976
		c2.559-1.58,5.696-2.719,9.253-3.475c3.627-0.733,7.161-1.104,10.741-1.104c7.882,0,13.81,1.465,17.715,4.382
		c3.918,2.93,5.905,7.173,5.905,12.74v41.393H633.041z M633.041,535.367h-7.673c-7.624,0-13.391,0.977-17.343,2.918
		c-3.951,1.965-5.928,5.196-5.928,9.787c0,3.429,1.324,5.976,3.975,7.637c2.616,1.686,5.673,2.534,9.125,2.534
		c3.546,0,6.754-0.628,9.683-1.872c2.93-1.278,5.65-2.894,8.161-4.834V535.367z"/>
	<rect x="686.383" y="463.042" fill="#FFFFFF" width="9.125" height="101.745"/>
	<path fill="#FFFFFF" d="M745.922,536.623c0.105,3.057,0.594,5.882,1.523,8.451c0.93,2.579,2.255,4.834,3.963,6.741
		c1.732,1.871,3.802,3.348,6.289,4.475c2.464,1.104,5.254,1.674,8.438,1.674c4.267,0,7.928-0.697,10.938-2.104
		c3.035-1.396,5.801-3.29,8.429-5.719l5.857,5.719c-2.696,2.709-6.079,5.173-10.183,7.312c-4.08,2.197-9.183,3.289-15.309,3.289
		c-4.569,0-8.613-0.801-12.205-2.358c-3.593-1.582-6.638-3.767-9.09-6.487c-2.5-2.766-4.395-5.997-5.743-9.764
		c-1.337-3.754-1.976-7.835-1.976-12.17c0-3.918,0.639-7.661,1.895-11.172c1.302-3.545,3.162-6.672,5.579-9.415
		c2.441-2.743,5.452-4.882,8.986-6.475c3.511-1.557,7.474-2.359,11.821-2.359c4.476,0,8.393,0.813,11.717,2.441
		c3.348,1.615,6.184,3.824,8.51,6.591c2.324,2.824,4.08,6.021,5.23,9.683c1.151,3.695,1.777,7.579,1.883,11.647H745.922z
		 M780.48,523.72c-0.953-1.732-2.14-3.301-3.558-4.696c-1.406-1.371-3.185-2.476-5.229-3.313c-2.047-0.813-4.313-1.208-6.836-1.208
		c-5.277,0-9.485,1.405-12.577,4.266c-3.149,2.836-5.056,6.347-5.835,10.473h35.988C782.061,527.289,781.388,525.476,780.48,523.72"
		/>
</g>
</svg>
