<?xml version="1.0" encoding="utf-8"?>
<!-- Generator: Adobe Illustrator 22.1.0, SVG Export Plug-In . SVG Version: 6.00 Build 0)  -->
<svg version="1.1" id="Layer_1" xmlns="http://www.w3.org/2000/svg" xmlns:xlink="http://www.w3.org/1999/xlink" x="0px" y="0px"
	 viewBox="0 0 136 144.7" style="enable-background:new 0 0 136 144.7;" xml:space="preserve">
<style type="text/css">
	.st0{fill:#ffffff;}
	.st1{fill:none;}
</style>
<g>
	<polygon class="st0" points="63.5,100.7 72.4,100.7 72.4,144.7 63.5,144.7 63.5,100.7 	"/>
	<path class="st0" d="M47.5,97.2c-1.5-0.8-6-3.1-11.3,1.5L8,122.5l7.1,5.7l8.8-7.8c4.1,3.9,6.7,5.1,7.8,5.7c1.1,0.6,3.5,2.1,9,3.4
		l-1.8,11.6l8.6,3l4.8-36.6C53.3,100.6,49,98,47.5,97.2z M35.4,119.2c-2.3-1.2-4.9-3.2-5.6-4.1l11.5-10.3c0.5-0.4,1.3-0.7,2.1-0.3
		c0.8,0.4,1,1.2,0.9,1.9l-2.5,15.3C40.8,121.6,37.7,120.5,35.4,119.2z"/>
	<path class="st0" d="M83.5,107.5l4.8,36.6l8.6-3l-1.8-11.6c5.5-1.3,7.9-2.8,9-3.4c1.1-0.6,3.7-1.8,7.8-5.7l8.8,7.8l7.1-5.7
		L99.6,98.7c-5.2-4.6-9.8-2.3-11.3-1.5C86.8,98,82.4,100.6,83.5,107.5z M93.9,121.7l-2.5-15.3c-0.1-0.7,0.1-1.5,0.9-1.9
		c0.8-0.4,1.6-0.2,2.1,0.3l11.5,10.3c-0.7,0.9-3.2,2.8-5.6,4.1C98,120.5,95,121.6,93.9,121.7z"/>
	<path class="st0" d="M53.9,58.7c-2.2-0.6-3.8-0.8-5-1s0.6-1,1.2-1.1c0.6-0.1,5.1-1.5,6.7-2.6c1.6-1.1,6.9-4.1,7.7-5.2
		s3.3-0.5,3.7-0.5c0,0,0.2,0.4-0.5,1.1c-0.7,0.7-0.7,1.4-0.9,2.2s-0.8,1.5-1.7,2.1c-0.9,0.6-4.1,2.5-3.7,5.2c0.4,2.7,3,5.8,4.6,6.7
		s7.6,5.5,8.7,6.5c1.4,1.3,2.3,3.8,3.2,6.6c0.9,2.8,3.8,4.1,5.8,4.1s5.2-0.1,6.4,1.8c0,0-0.3,0.3-1.2,0.2s-4,1-4.8,1.4
		c-0.8,0.4-3.9,0.6-6.5,0.3c-2.6-0.2-4.4-0.3-5.4,0.8s-1.9,1.8-3.7,2c-1.8,0.2-11.9-0.4-14-1.6c-2.4-1.3,2.2-1.4,2.9-1.7
		s6-1.1,7.5-1.8c1.2-0.6,4.6-4.8,6.2-5.2c1.6-0.5,1.4-3.1-0.1-3.9c-1.5-0.8-2.2,0.6-3.3-1s-0.1-2.2-1.2-3.8
		c-1.1-1.6-4.8-4.2-6.5-6.6C58.3,61.3,55.7,59.2,53.9,58.7z"/>
	<path class="st0" d="M68,0C30.4,0,0,30.4,0,68c0,15.6,5.3,30,14.2,41.5l2.2-1.7c-5.1-6.5-8.8-14-11-22.2c0-0.9,1.9-0.5,3-0.3
		c1.1,0.2,8.9,2.8,11.9,2.2s7.1-1.9,10.1-3.2s6.9-1.6,8.1-1.5s-0.6-1.4-1.8-1.9s-4.1,0-7.3,0c-3.1,0,5.8-9,6.5-9.5s1.5-1,0.5-1
		s-6.9,3.2-8.9,3.9s-6.2,0.5-8.5,0.6s-7.8,3.8-9.4,4.5s-5.3,1.7-5.3,1.7s0.8-10.9,4.4-16s8.6-10.2,10.5-9.4s0,2.6,0.9,3.5
		s2.1,0.8,2.1,2.8s0.5,3-2.1,5.9s-3.5,4.9-1,4s8.5-2.8,10.1-3.2s5-4.1,6.9-5.1S46.6,54,48.4,53.2s4.9-3.2,5.8-4.6s3-4.2,4.9-5.2
		s7.9-4.6,9-6.4s2.6-4.8,3.4-4.6s3,1.2,4,2.4s0.8,2.4,1.4,3.4s2,2.5,3.9,3.1s7,4.6,5.9,5.1c-0.9,0.4-4.4-2.1-5.9-2.2s-2.5,0-2.1,0.9
		s4.8,4.6,5.8,6s1,4.6,1.9,7.2s2.9,2.9,3.1,7s3.9,8,5.4,9.2s3.6,3.1,4.9,3.2s1-0.8,3,0s1.6,0,0.8-1.6s0.9-2.1,0.9-2.1
		c4.4-0.2,6.1,4.5,6,8.5s-2.9,3-4.4,6.1s0,2.2,0.8,1.6s6-0.5,8.6-0.8s4.9-3.6,5.9-4.5s1.9-0.9,2.8-0.4s-0.1,3.2,0.4,3.6
		s3.2-1.6,4.3-2.4c1-0.8,2.4-0.8,2.4-0.8c0,0,0,0,0-0.1c-2.1,8.5-6,16.3-11.3,23l2.2,1.7c8.9-11.5,14.3-26,14.3-41.7
		C136,30.4,105.6,0,68,0z M122.6,66.9c-1.6-1.2-5.9-6.2-8-6.9s-8.2-4.8-10.1-5.6s-4.1-3.9-4.5-5.4s-3.9-6.2-5.8-6.6
		s-10.4-4.1-11.6-4.6S77,34.5,75.1,33s-3.8-1.6-4.4-1.4c-0.6,0.2-2.6,3.8-3.3,4.9s-8,5.6-8.9,5.9s-3.2,1.8-4.5,2.9
		c-1.6,1.4-2,3.4-4,4.6c-1.9,1.2-10.4,7-11.9,8s-3.9,4.4-5.6,4.2c-1.8-0.1-7.9-2.8-9.2-4.2S19.1,55,19.1,55
		c-2.8,0-11.8,8.5-15.6,12.2C5.1,33.9,33.3,7.4,68,7.4c33.8,0,61.5,25.2,64.3,57.4C129.8,69.1,124.2,68.1,122.6,66.9z"/>
</g>
<rect x="-14.3" y="-10.7" class="st1" width="164.6" height="164.6"/>
</svg>
